G04 #@! TF.GenerationSoftware,KiCad,Pcbnew,(5.0-dev-4115-gdd04bcb)*
G04 #@! TF.CreationDate,2018-05-14T20:31:40-07:00*
G04 #@! TF.ProjectId,inverter,696E7665727465722E6B696361645F70,rev?*
G04 #@! TF.SameCoordinates,Original*
G04 #@! TF.FileFunction,Legend,Top*
G04 #@! TF.FilePolarity,Positive*
%FSLAX46Y46*%
G04 Gerber Fmt 4.6, Leading zero omitted, Abs format (unit mm)*
G04 Created by KiCad (PCBNEW (5.0-dev-4115-gdd04bcb)) date Monday, May 14, 2018 at 08:31:40 PM*
%MOMM*%
%LPD*%
G01*
G04 APERTURE LIST*
%ADD10C,0.120000*%
%ADD11C,0.150000*%
G04 APERTURE END LIST*
D10*
X175930000Y-82697500D02*
X173500000Y-82697500D01*
X175950000Y-82707500D02*
X175950000Y-83707500D01*
X175950000Y-85757500D02*
X174100000Y-85757500D01*
X175950000Y-84707500D02*
X175950000Y-85757500D01*
D11*
X169547619Y-88202380D02*
X169547619Y-87535714D01*
X169547619Y-87202380D02*
X169500000Y-87250000D01*
X169547619Y-87297619D01*
X169595238Y-87250000D01*
X169547619Y-87202380D01*
X169547619Y-87297619D01*
X170023809Y-87535714D02*
X170023809Y-88202380D01*
X170023809Y-87630952D02*
X170071428Y-87583333D01*
X170166666Y-87535714D01*
X170309523Y-87535714D01*
X170404761Y-87583333D01*
X170452380Y-87678571D01*
X170452380Y-88202380D01*
X169166666Y-79702380D02*
X169500000Y-80702380D01*
X169833333Y-79702380D01*
X170166666Y-80702380D02*
X170166666Y-79702380D01*
X170404761Y-79702380D01*
X170547619Y-79750000D01*
X170642857Y-79845238D01*
X170690476Y-79940476D01*
X170738095Y-80130952D01*
X170738095Y-80273809D01*
X170690476Y-80464285D01*
X170642857Y-80559523D01*
X170547619Y-80654761D01*
X170404761Y-80702380D01*
X170166666Y-80702380D01*
X171166666Y-80702380D02*
X171166666Y-79702380D01*
X171404761Y-79702380D01*
X171547619Y-79750000D01*
X171642857Y-79845238D01*
X171690476Y-79940476D01*
X171738095Y-80130952D01*
X171738095Y-80273809D01*
X171690476Y-80464285D01*
X171642857Y-80559523D01*
X171547619Y-80654761D01*
X171404761Y-80702380D01*
X171166666Y-80702380D01*
X177714285Y-87702380D02*
X178047619Y-88702380D01*
X178380952Y-87702380D01*
X178666666Y-88654761D02*
X178809523Y-88702380D01*
X179047619Y-88702380D01*
X179142857Y-88654761D01*
X179190476Y-88607142D01*
X179238095Y-88511904D01*
X179238095Y-88416666D01*
X179190476Y-88321428D01*
X179142857Y-88273809D01*
X179047619Y-88226190D01*
X178857142Y-88178571D01*
X178761904Y-88130952D01*
X178714285Y-88083333D01*
X178666666Y-87988095D01*
X178666666Y-87892857D01*
X178714285Y-87797619D01*
X178761904Y-87750000D01*
X178857142Y-87702380D01*
X179095238Y-87702380D01*
X179238095Y-87750000D01*
X179619047Y-88654761D02*
X179761904Y-88702380D01*
X180000000Y-88702380D01*
X180095238Y-88654761D01*
X180142857Y-88607142D01*
X180190476Y-88511904D01*
X180190476Y-88416666D01*
X180142857Y-88321428D01*
X180095238Y-88273809D01*
X180000000Y-88226190D01*
X179809523Y-88178571D01*
X179714285Y-88130952D01*
X179666666Y-88083333D01*
X179619047Y-87988095D01*
X179619047Y-87892857D01*
X179666666Y-87797619D01*
X179714285Y-87750000D01*
X179809523Y-87702380D01*
X180047619Y-87702380D01*
X180190476Y-87750000D01*
X178690476Y-81202380D02*
X178595238Y-81154761D01*
X178547619Y-81107142D01*
X178500000Y-81011904D01*
X178500000Y-80726190D01*
X178547619Y-80630952D01*
X178595238Y-80583333D01*
X178690476Y-80535714D01*
X178833333Y-80535714D01*
X178928571Y-80583333D01*
X178976190Y-80630952D01*
X179023809Y-80726190D01*
X179023809Y-81011904D01*
X178976190Y-81107142D01*
X178928571Y-81154761D01*
X178833333Y-81202380D01*
X178690476Y-81202380D01*
X179880952Y-80535714D02*
X179880952Y-81202380D01*
X179452380Y-80535714D02*
X179452380Y-81059523D01*
X179500000Y-81154761D01*
X179595238Y-81202380D01*
X179738095Y-81202380D01*
X179833333Y-81154761D01*
X179880952Y-81107142D01*
X180214285Y-80535714D02*
X180595238Y-80535714D01*
X180357142Y-80202380D02*
X180357142Y-81059523D01*
X180404761Y-81154761D01*
X180500000Y-81202380D01*
X180595238Y-81202380D01*
X174660714Y-83678571D02*
X175410714Y-83678571D01*
X174660714Y-84107142D01*
X175410714Y-84107142D01*
X174660714Y-84857142D02*
X174660714Y-84428571D01*
X174660714Y-84642857D02*
X175410714Y-84642857D01*
X175303571Y-84571428D01*
X175232142Y-84500000D01*
X175196428Y-84428571D01*
M02*
