G04 #@! TF.GenerationSoftware,KiCad,Pcbnew,(5.0-dev-4115-gdd04bcb)*
G04 #@! TF.CreationDate,2018-05-08T10:26:27-07:00*
G04 #@! TF.ProjectId,inverter,696E7665727465722E6B696361645F70,rev?*
G04 #@! TF.SameCoordinates,Original*
G04 #@! TF.FileFunction,Legend,Bot*
G04 #@! TF.FilePolarity,Positive*
%FSLAX46Y46*%
G04 Gerber Fmt 4.6, Leading zero omitted, Abs format (unit mm)*
G04 Created by KiCad (PCBNEW (5.0-dev-4115-gdd04bcb)) date Tuesday, May 08, 2018 at 10:26:27 AM*
%MOMM*%
%LPD*%
G01*
G04 APERTURE LIST*
%ADD10C,0.150000*%
%ADD11C,0.120000*%
G04 APERTURE END LIST*
D10*
X179476190Y-81207142D02*
X179523809Y-81254761D01*
X179666666Y-81302380D01*
X179761904Y-81302380D01*
X179904761Y-81254761D01*
X180000000Y-81159523D01*
X180047619Y-81064285D01*
X180095238Y-80873809D01*
X180095238Y-80730952D01*
X180047619Y-80540476D01*
X180000000Y-80445238D01*
X179904761Y-80350000D01*
X179761904Y-80302380D01*
X179666666Y-80302380D01*
X179523809Y-80350000D01*
X179476190Y-80397619D01*
X179047619Y-81302380D02*
X179047619Y-80302380D01*
X178714285Y-81016666D01*
X178380952Y-80302380D01*
X178380952Y-81302380D01*
X177714285Y-80302380D02*
X177523809Y-80302380D01*
X177428571Y-80350000D01*
X177333333Y-80445238D01*
X177285714Y-80635714D01*
X177285714Y-80969047D01*
X177333333Y-81159523D01*
X177428571Y-81254761D01*
X177523809Y-81302380D01*
X177714285Y-81302380D01*
X177809523Y-81254761D01*
X177904761Y-81159523D01*
X177952380Y-80969047D01*
X177952380Y-80635714D01*
X177904761Y-80445238D01*
X177809523Y-80350000D01*
X177714285Y-80302380D01*
X176904761Y-81254761D02*
X176761904Y-81302380D01*
X176523809Y-81302380D01*
X176428571Y-81254761D01*
X176380952Y-81207142D01*
X176333333Y-81111904D01*
X176333333Y-81016666D01*
X176380952Y-80921428D01*
X176428571Y-80873809D01*
X176523809Y-80826190D01*
X176714285Y-80778571D01*
X176809523Y-80730952D01*
X176857142Y-80683333D01*
X176904761Y-80588095D01*
X176904761Y-80492857D01*
X176857142Y-80397619D01*
X176809523Y-80350000D01*
X176714285Y-80302380D01*
X176476190Y-80302380D01*
X176333333Y-80350000D01*
X175142857Y-81302380D02*
X175142857Y-80302380D01*
X174666666Y-80635714D02*
X174666666Y-81302380D01*
X174666666Y-80730952D02*
X174619047Y-80683333D01*
X174523809Y-80635714D01*
X174380952Y-80635714D01*
X174285714Y-80683333D01*
X174238095Y-80778571D01*
X174238095Y-81302380D01*
X173857142Y-80635714D02*
X173619047Y-81302380D01*
X173380952Y-80635714D01*
X172619047Y-81254761D02*
X172714285Y-81302380D01*
X172904761Y-81302380D01*
X172999999Y-81254761D01*
X173047619Y-81159523D01*
X173047619Y-80778571D01*
X172999999Y-80683333D01*
X172904761Y-80635714D01*
X172714285Y-80635714D01*
X172619047Y-80683333D01*
X172571428Y-80778571D01*
X172571428Y-80873809D01*
X173047619Y-80969047D01*
X172142857Y-81302380D02*
X172142857Y-80635714D01*
X172142857Y-80826190D02*
X172095238Y-80730952D01*
X172047619Y-80683333D01*
X171952380Y-80635714D01*
X171857142Y-80635714D01*
X171666666Y-80635714D02*
X171285714Y-80635714D01*
X171523809Y-80302380D02*
X171523809Y-81159523D01*
X171476190Y-81254761D01*
X171380952Y-81302380D01*
X171285714Y-81302380D01*
X170571428Y-81254761D02*
X170666666Y-81302380D01*
X170857142Y-81302380D01*
X170952380Y-81254761D01*
X170999999Y-81159523D01*
X170999999Y-80778571D01*
X170952380Y-80683333D01*
X170857142Y-80635714D01*
X170666666Y-80635714D01*
X170571428Y-80683333D01*
X170523809Y-80778571D01*
X170523809Y-80873809D01*
X170999999Y-80969047D01*
X170095238Y-81302380D02*
X170095238Y-80635714D01*
X170095238Y-80826190D02*
X170047619Y-80730952D01*
X169999999Y-80683333D01*
X169904761Y-80635714D01*
X169809523Y-80635714D01*
X179761904Y-87807142D02*
X179809523Y-87854761D01*
X179952380Y-87902380D01*
X180047619Y-87902380D01*
X180190476Y-87854761D01*
X180285714Y-87759523D01*
X180333333Y-87664285D01*
X180380952Y-87473809D01*
X180380952Y-87330952D01*
X180333333Y-87140476D01*
X180285714Y-87045238D01*
X180190476Y-86950000D01*
X180047619Y-86902380D01*
X179952380Y-86902380D01*
X179809523Y-86950000D01*
X179761904Y-86997619D01*
X179190476Y-87902380D02*
X179285714Y-87854761D01*
X179333333Y-87807142D01*
X179380952Y-87711904D01*
X179380952Y-87426190D01*
X179333333Y-87330952D01*
X179285714Y-87283333D01*
X179190476Y-87235714D01*
X179047619Y-87235714D01*
X178952380Y-87283333D01*
X178904761Y-87330952D01*
X178857142Y-87426190D01*
X178857142Y-87711904D01*
X178904761Y-87807142D01*
X178952380Y-87854761D01*
X179047619Y-87902380D01*
X179190476Y-87902380D01*
X178428571Y-87902380D02*
X178428571Y-87235714D01*
X178428571Y-87426190D02*
X178380952Y-87330952D01*
X178333333Y-87283333D01*
X178238095Y-87235714D01*
X178142857Y-87235714D01*
X177904761Y-87235714D02*
X177714285Y-87902380D01*
X177523809Y-87426190D01*
X177333333Y-87902380D01*
X177142857Y-87235714D01*
X176761904Y-87902380D02*
X176761904Y-87235714D01*
X176761904Y-86902380D02*
X176809523Y-86950000D01*
X176761904Y-86997619D01*
X176714285Y-86950000D01*
X176761904Y-86902380D01*
X176761904Y-86997619D01*
X176285714Y-87235714D02*
X176285714Y-87902380D01*
X176285714Y-87330952D02*
X176238095Y-87283333D01*
X176142857Y-87235714D01*
X176000000Y-87235714D01*
X175904761Y-87283333D01*
X175857142Y-87378571D01*
X175857142Y-87902380D01*
X174619047Y-87902380D02*
X174619047Y-86902380D01*
X174619047Y-87378571D02*
X174047619Y-87378571D01*
X174047619Y-87902380D02*
X174047619Y-86902380D01*
X173142857Y-87902380D02*
X173142857Y-87378571D01*
X173190476Y-87283333D01*
X173285714Y-87235714D01*
X173476190Y-87235714D01*
X173571428Y-87283333D01*
X173142857Y-87854761D02*
X173238095Y-87902380D01*
X173476190Y-87902380D01*
X173571428Y-87854761D01*
X173619047Y-87759523D01*
X173619047Y-87664285D01*
X173571428Y-87569047D01*
X173476190Y-87521428D01*
X173238095Y-87521428D01*
X173142857Y-87473809D01*
X172666666Y-87235714D02*
X172666666Y-87902380D01*
X172666666Y-87330952D02*
X172619047Y-87283333D01*
X172523809Y-87235714D01*
X172380952Y-87235714D01*
X172285714Y-87283333D01*
X172238095Y-87378571D01*
X172238095Y-87902380D01*
X171809523Y-87854761D02*
X171714285Y-87902380D01*
X171523809Y-87902380D01*
X171428571Y-87854761D01*
X171380952Y-87759523D01*
X171380952Y-87711904D01*
X171428571Y-87616666D01*
X171523809Y-87569047D01*
X171666666Y-87569047D01*
X171761904Y-87521428D01*
X171809523Y-87426190D01*
X171809523Y-87378571D01*
X171761904Y-87283333D01*
X171666666Y-87235714D01*
X171523809Y-87235714D01*
X171428571Y-87283333D01*
X170571428Y-87854761D02*
X170666666Y-87902380D01*
X170857142Y-87902380D01*
X170952380Y-87854761D01*
X171000000Y-87759523D01*
X171000000Y-87378571D01*
X170952380Y-87283333D01*
X170857142Y-87235714D01*
X170666666Y-87235714D01*
X170571428Y-87283333D01*
X170523809Y-87378571D01*
X170523809Y-87473809D01*
X171000000Y-87569047D01*
X170095238Y-87235714D02*
X170095238Y-87902380D01*
X170095238Y-87330952D02*
X170047619Y-87283333D01*
X169952380Y-87235714D01*
X169809523Y-87235714D01*
X169714285Y-87283333D01*
X169666666Y-87378571D01*
X169666666Y-87902380D01*
D11*
X175950000Y-83700000D02*
X175950000Y-82650000D01*
X175950000Y-82650000D02*
X174100000Y-82650000D01*
X175950000Y-85700000D02*
X175950000Y-84700000D01*
X175930000Y-85710000D02*
X173500000Y-85710000D01*
D10*
X175339285Y-83696428D02*
X174589285Y-83696428D01*
X174589285Y-83982142D01*
X174625000Y-84053571D01*
X174660714Y-84089285D01*
X174732142Y-84125000D01*
X174839285Y-84125000D01*
X174910714Y-84089285D01*
X174946428Y-84053571D01*
X174982142Y-83982142D01*
X174982142Y-83696428D01*
X175339285Y-84839285D02*
X175339285Y-84410714D01*
X175339285Y-84625000D02*
X174589285Y-84625000D01*
X174696428Y-84553571D01*
X174767857Y-84482142D01*
X174803571Y-84410714D01*
M02*
