G04 #@! TF.GenerationSoftware,KiCad,Pcbnew,(5.0-dev-4115-gdd04bcb)*
G04 #@! TF.CreationDate,2018-05-08T16:18:48-07:00*
G04 #@! TF.ProjectId,buffer,6275666665722E6B696361645F706362,rev?*
G04 #@! TF.SameCoordinates,Original*
G04 #@! TF.FileFunction,Copper,L2,Bot,Signal*
G04 #@! TF.FilePolarity,Positive*
%FSLAX46Y46*%
G04 Gerber Fmt 4.6, Leading zero omitted, Abs format (unit mm)*
G04 Created by KiCad (PCBNEW (5.0-dev-4115-gdd04bcb)) date Tuesday, May 08, 2018 at 04:18:48 PM*
%MOMM*%
%LPD*%
G01*
G04 APERTURE LIST*
%ADD10R,1.220000X0.650000*%
%ADD11C,0.800000*%
%ADD12C,0.250000*%
G04 APERTURE END LIST*
D10*
X157690000Y-116950000D03*
X157690000Y-115050000D03*
X160310000Y-116000000D03*
X162690000Y-116950000D03*
X162690000Y-115050000D03*
X165310000Y-116000000D03*
D11*
X157315000Y-116000000D03*
X161500010Y-114500000D03*
X164499997Y-114750003D03*
X161750000Y-116000000D03*
X159732484Y-114986707D03*
D12*
X157690000Y-116950000D02*
X157690000Y-116375000D01*
X157690000Y-116375000D02*
X157315000Y-116000000D01*
X161235000Y-114500000D02*
X161500010Y-114500000D01*
X160310000Y-115425000D02*
X161235000Y-114500000D01*
X160310000Y-116000000D02*
X160310000Y-115425000D01*
X161900009Y-114100001D02*
X161500010Y-114500000D01*
X162150008Y-113850002D02*
X161900009Y-114100001D01*
X164673008Y-113850002D02*
X162150008Y-113850002D01*
X165310000Y-116000000D02*
X165310000Y-114486994D01*
X165310000Y-114486994D02*
X164673008Y-113850002D01*
X162690000Y-115050000D02*
X164200000Y-115050000D01*
X164200000Y-115050000D02*
X164499997Y-114750003D01*
X161750000Y-116000000D02*
X161750000Y-116010000D01*
X161750000Y-116010000D02*
X162690000Y-116950000D01*
X159732484Y-114986707D02*
X157753293Y-114986707D01*
X157753293Y-114986707D02*
X157690000Y-115050000D01*
M02*
