G04 #@! TF.GenerationSoftware,KiCad,Pcbnew,(5.0-dev-4115-gdd04bcb)*
G04 #@! TF.CreationDate,2018-05-08T16:18:48-07:00*
G04 #@! TF.ProjectId,buffer,6275666665722E6B696361645F706362,rev?*
G04 #@! TF.SameCoordinates,Original*
G04 #@! TF.FileFunction,Legend,Bot*
G04 #@! TF.FilePolarity,Positive*
%FSLAX46Y46*%
G04 Gerber Fmt 4.6, Leading zero omitted, Abs format (unit mm)*
G04 Created by KiCad (PCBNEW (5.0-dev-4115-gdd04bcb)) date Tuesday, May 08, 2018 at 04:18:48 PM*
%MOMM*%
%LPD*%
G01*
G04 APERTURE LIST*
%ADD10C,0.150000*%
%ADD11C,0.120000*%
G04 APERTURE END LIST*
D10*
X165404761Y-113057142D02*
X165452380Y-113104761D01*
X165595238Y-113152380D01*
X165690476Y-113152380D01*
X165833333Y-113104761D01*
X165928571Y-113009523D01*
X165976190Y-112914285D01*
X166023809Y-112723809D01*
X166023809Y-112580952D01*
X165976190Y-112390476D01*
X165928571Y-112295238D01*
X165833333Y-112200000D01*
X165690476Y-112152380D01*
X165595238Y-112152380D01*
X165452380Y-112200000D01*
X165404761Y-112247619D01*
X164976190Y-113152380D02*
X164976190Y-112152380D01*
X164642857Y-112866666D01*
X164309523Y-112152380D01*
X164309523Y-113152380D01*
X163642857Y-112152380D02*
X163452380Y-112152380D01*
X163357142Y-112200000D01*
X163261904Y-112295238D01*
X163214285Y-112485714D01*
X163214285Y-112819047D01*
X163261904Y-113009523D01*
X163357142Y-113104761D01*
X163452380Y-113152380D01*
X163642857Y-113152380D01*
X163738095Y-113104761D01*
X163833333Y-113009523D01*
X163880952Y-112819047D01*
X163880952Y-112485714D01*
X163833333Y-112295238D01*
X163738095Y-112200000D01*
X163642857Y-112152380D01*
X162833333Y-113104761D02*
X162690476Y-113152380D01*
X162452380Y-113152380D01*
X162357142Y-113104761D01*
X162309523Y-113057142D01*
X162261904Y-112961904D01*
X162261904Y-112866666D01*
X162309523Y-112771428D01*
X162357142Y-112723809D01*
X162452380Y-112676190D01*
X162642857Y-112628571D01*
X162738095Y-112580952D01*
X162785714Y-112533333D01*
X162833333Y-112438095D01*
X162833333Y-112342857D01*
X162785714Y-112247619D01*
X162738095Y-112200000D01*
X162642857Y-112152380D01*
X162404761Y-112152380D01*
X162261904Y-112200000D01*
X160738095Y-112628571D02*
X160595238Y-112676190D01*
X160547619Y-112723809D01*
X160500000Y-112819047D01*
X160500000Y-112961904D01*
X160547619Y-113057142D01*
X160595238Y-113104761D01*
X160690476Y-113152380D01*
X161071428Y-113152380D01*
X161071428Y-112152380D01*
X160738095Y-112152380D01*
X160642857Y-112200000D01*
X160595238Y-112247619D01*
X160547619Y-112342857D01*
X160547619Y-112438095D01*
X160595238Y-112533333D01*
X160642857Y-112580952D01*
X160738095Y-112628571D01*
X161071428Y-112628571D01*
X159642857Y-112485714D02*
X159642857Y-113152380D01*
X160071428Y-112485714D02*
X160071428Y-113009523D01*
X160023809Y-113104761D01*
X159928571Y-113152380D01*
X159785714Y-113152380D01*
X159690476Y-113104761D01*
X159642857Y-113057142D01*
X159309523Y-112485714D02*
X158928571Y-112485714D01*
X159166666Y-113152380D02*
X159166666Y-112295238D01*
X159119047Y-112200000D01*
X159023809Y-112152380D01*
X158928571Y-112152380D01*
X158738095Y-112485714D02*
X158357142Y-112485714D01*
X158595238Y-113152380D02*
X158595238Y-112295238D01*
X158547619Y-112200000D01*
X158452380Y-112152380D01*
X158357142Y-112152380D01*
X157642857Y-113104761D02*
X157738095Y-113152380D01*
X157928571Y-113152380D01*
X158023809Y-113104761D01*
X158071428Y-113009523D01*
X158071428Y-112628571D01*
X158023809Y-112533333D01*
X157928571Y-112485714D01*
X157738095Y-112485714D01*
X157642857Y-112533333D01*
X157595238Y-112628571D01*
X157595238Y-112723809D01*
X158071428Y-112819047D01*
X157166666Y-113152380D02*
X157166666Y-112485714D01*
X157166666Y-112676190D02*
X157119047Y-112580952D01*
X157071428Y-112533333D01*
X156976190Y-112485714D01*
X156880952Y-112485714D01*
X166261904Y-119657142D02*
X166309523Y-119704761D01*
X166452380Y-119752380D01*
X166547619Y-119752380D01*
X166690476Y-119704761D01*
X166785714Y-119609523D01*
X166833333Y-119514285D01*
X166880952Y-119323809D01*
X166880952Y-119180952D01*
X166833333Y-118990476D01*
X166785714Y-118895238D01*
X166690476Y-118800000D01*
X166547619Y-118752380D01*
X166452380Y-118752380D01*
X166309523Y-118800000D01*
X166261904Y-118847619D01*
X165690476Y-119752380D02*
X165785714Y-119704761D01*
X165833333Y-119657142D01*
X165880952Y-119561904D01*
X165880952Y-119276190D01*
X165833333Y-119180952D01*
X165785714Y-119133333D01*
X165690476Y-119085714D01*
X165547619Y-119085714D01*
X165452380Y-119133333D01*
X165404761Y-119180952D01*
X165357142Y-119276190D01*
X165357142Y-119561904D01*
X165404761Y-119657142D01*
X165452380Y-119704761D01*
X165547619Y-119752380D01*
X165690476Y-119752380D01*
X164928571Y-119752380D02*
X164928571Y-119085714D01*
X164928571Y-119276190D02*
X164880952Y-119180952D01*
X164833333Y-119133333D01*
X164738095Y-119085714D01*
X164642857Y-119085714D01*
X164404761Y-119085714D02*
X164214285Y-119752380D01*
X164023809Y-119276190D01*
X163833333Y-119752380D01*
X163642857Y-119085714D01*
X163261904Y-119752380D02*
X163261904Y-119085714D01*
X163261904Y-118752380D02*
X163309523Y-118800000D01*
X163261904Y-118847619D01*
X163214285Y-118800000D01*
X163261904Y-118752380D01*
X163261904Y-118847619D01*
X162785714Y-119085714D02*
X162785714Y-119752380D01*
X162785714Y-119180952D02*
X162738095Y-119133333D01*
X162642857Y-119085714D01*
X162500000Y-119085714D01*
X162404761Y-119133333D01*
X162357142Y-119228571D01*
X162357142Y-119752380D01*
X161119047Y-119752380D02*
X161119047Y-118752380D01*
X161119047Y-119228571D02*
X160547619Y-119228571D01*
X160547619Y-119752380D02*
X160547619Y-118752380D01*
X159642857Y-119752380D02*
X159642857Y-119228571D01*
X159690476Y-119133333D01*
X159785714Y-119085714D01*
X159976190Y-119085714D01*
X160071428Y-119133333D01*
X159642857Y-119704761D02*
X159738095Y-119752380D01*
X159976190Y-119752380D01*
X160071428Y-119704761D01*
X160119047Y-119609523D01*
X160119047Y-119514285D01*
X160071428Y-119419047D01*
X159976190Y-119371428D01*
X159738095Y-119371428D01*
X159642857Y-119323809D01*
X159166666Y-119085714D02*
X159166666Y-119752380D01*
X159166666Y-119180952D02*
X159119047Y-119133333D01*
X159023809Y-119085714D01*
X158880952Y-119085714D01*
X158785714Y-119133333D01*
X158738095Y-119228571D01*
X158738095Y-119752380D01*
X158309523Y-119704761D02*
X158214285Y-119752380D01*
X158023809Y-119752380D01*
X157928571Y-119704761D01*
X157880952Y-119609523D01*
X157880952Y-119561904D01*
X157928571Y-119466666D01*
X158023809Y-119419047D01*
X158166666Y-119419047D01*
X158261904Y-119371428D01*
X158309523Y-119276190D01*
X158309523Y-119228571D01*
X158261904Y-119133333D01*
X158166666Y-119085714D01*
X158023809Y-119085714D01*
X157928571Y-119133333D01*
X157071428Y-119704761D02*
X157166666Y-119752380D01*
X157357142Y-119752380D01*
X157452380Y-119704761D01*
X157500000Y-119609523D01*
X157500000Y-119228571D01*
X157452380Y-119133333D01*
X157357142Y-119085714D01*
X157166666Y-119085714D01*
X157071428Y-119133333D01*
X157023809Y-119228571D01*
X157023809Y-119323809D01*
X157500000Y-119419047D01*
X156595238Y-119085714D02*
X156595238Y-119752380D01*
X156595238Y-119180952D02*
X156547619Y-119133333D01*
X156452380Y-119085714D01*
X156309523Y-119085714D01*
X156214285Y-119133333D01*
X156166666Y-119228571D01*
X156166666Y-119752380D01*
D11*
X159950000Y-115500000D02*
X159950000Y-114450000D01*
X159950000Y-114450000D02*
X158100000Y-114450000D01*
X159950000Y-117500000D02*
X159950000Y-116500000D01*
X159930000Y-117510000D02*
X157500000Y-117510000D01*
X164950000Y-115500000D02*
X164950000Y-114450000D01*
X164950000Y-114450000D02*
X163100000Y-114450000D01*
X164950000Y-117500000D02*
X164950000Y-116500000D01*
X164930000Y-117510000D02*
X162500000Y-117510000D01*
D10*
X159339285Y-115446428D02*
X158589285Y-115446428D01*
X158589285Y-115732142D01*
X158625000Y-115803571D01*
X158660714Y-115839285D01*
X158732142Y-115875000D01*
X158839285Y-115875000D01*
X158910714Y-115839285D01*
X158946428Y-115803571D01*
X158982142Y-115732142D01*
X158982142Y-115446428D01*
X159339285Y-116589285D02*
X159339285Y-116160714D01*
X159339285Y-116375000D02*
X158589285Y-116375000D01*
X158696428Y-116303571D01*
X158767857Y-116232142D01*
X158803571Y-116160714D01*
X164339285Y-115446428D02*
X163589285Y-115446428D01*
X163589285Y-115732142D01*
X163625000Y-115803571D01*
X163660714Y-115839285D01*
X163732142Y-115875000D01*
X163839285Y-115875000D01*
X163910714Y-115839285D01*
X163946428Y-115803571D01*
X163982142Y-115732142D01*
X163982142Y-115446428D01*
X163660714Y-116160714D02*
X163625000Y-116196428D01*
X163589285Y-116267857D01*
X163589285Y-116446428D01*
X163625000Y-116517857D01*
X163660714Y-116553571D01*
X163732142Y-116589285D01*
X163803571Y-116589285D01*
X163910714Y-116553571D01*
X164339285Y-116125000D01*
X164339285Y-116589285D01*
M02*
